<svg xmlns="http://www.w3.org/2000/svg" id="prefix__Group_4" width="183" height="53.856" data-name="Group 4" viewBox="0 0 183 53.856">
    <defs>
        <clipPath id="prefix__clip-path">
            <path id="prefix__Path_8" d="M14.505 157.427a6.512 6.512 0 0 0-6.492 6.515v.681c0 3.815 3.005 5.812 6.269 5.812s5.909-1.953 5.909-5.812v-7.2z" class="prefix__cls-1" data-name="Path 8" transform="translate(-8.013 -157.427)"/>
        </clipPath>
        <style>
            .prefix__cls-1{fill:#fcae00}
        </style>
    </defs>
    <path id="prefix__Path_1" d="M56.567 147.076a15.522 15.522 0 0 1 2.386-8.542 15.685 15.685 0 0 1 6.423-5.719 21.333 21.333 0 0 1 17.966 0 15.7 15.7 0 0 1 6.446 5.719 16.322 16.322 0 0 1 .995 15.118 14.379 14.379 0 0 1-3.807 5.043 17.96 17.96 0 0 1-5.652 3.165 21.814 21.814 0 0 1-15.924-.78 15.5 15.5 0 0 1-6.437-5.593 15.018 15.018 0 0 1-2.396-8.411zm12.5 0a5.668 5.668 0 0 0 1.533 4.234 5.194 5.194 0 0 0 3.79 1.509 5.341 5.341 0 0 0 3.833-1.509 5.582 5.582 0 0 0 1.577-4.234 6.08 6.08 0 0 0-1.592-4.423 5.135 5.135 0 0 0-3.818-1.638 5 5 0 0 0-3.775 1.638 6.178 6.178 0 0 0-1.55 4.423z" class="prefix__cls-1" data-name="Path 1" transform="translate(-22.907 -119.744)"/>
    <path id="prefix__Path_3" d="M203.229 125.358v-5.035a5.274 5.274 0 0 0-.3-1.683c-.72-2.215-2.724-3.8-5.753-3.8s-5.128 1.558-5.9 3.741a5.712 5.712 0 0 0-.306 1.734l-.008.783c-.01 1.567-.014 2.794.009 4.433v16.115a4.755 4.755 0 0 1-1.548 3.854 6.423 6.423 0 0 1-4.27 1.3 6.273 6.273 0 0 1-4.227-1.319 4.858 4.858 0 0 1-1.533-3.9v-16.052c.023-1.64.019-2.867.009-4.433l-.009-.783a5.633 5.633 0 0 0-.308-1.734c-.783-2.182-2.892-3.741-5.959-3.741s-5.081 1.588-5.807 3.8a5.222 5.222 0 0 0-.3 1.683V141.584a16.319 16.319 0 0 0 2.22 8.5 15.393 15.393 0 0 0 6.376 5.874 20.717 20.717 0 0 0 9.6 2.135q8.111 0 13.068-4.628a15.522 15.522 0 0 0 4.956-11.877v-16.229z" class="prefix__cls-1" data-name="Path 3" transform="translate(-56.785 -114.838)"/>
    <path id="prefix__Path_4" d="M253.4 135.678a12.678 12.678 0 0 0-10.029-4.358 11.367 11.367 0 0 0-3.41.494 10.078 10.078 0 0 0-2.479 1.087 10.972 10.972 0 0 0-2.579 2.471c-.042.067-.074.124-.108.183v-.168c-.514-2.382-1.061-3.109-3.073-3.3a34.686 34.686 0 0 0-5.165.093 2.6 2.6 0 0 0-2.536 2.458 10.441 10.441 0 0 0-.186 1.795v1.428c0 .032-.007.06-.007.094V168.389a5.129 5.129 0 0 0 .295 1.646c.709 2.166 2.682 3.72 5.663 3.72s5.048-1.525 5.812-3.66a5.533 5.533 0 0 0 .3-1.7l.008-.766c.011-1.747-.02-5.569-.02-7.543 0-.179.115-.268.213-.122a4.278 4.278 0 0 0 .71.73 9.782 9.782 0 0 0 1.289.921 7.514 7.514 0 0 0 2.021.779 11.271 11.271 0 0 0 2.793.326 13.431 13.431 0 0 0 10.259-4.324q4.04-4.324 4.04-11.36.003-7-3.811-11.358zm-9.518 15.453a4.3 4.3 0 0 1-3.31 1.5 4.133 4.133 0 0 1-3.539-1.644 7.49 7.49 0 0 1 .143-8.4 4.3 4.3 0 0 1 3.339-1.529 4.159 4.159 0 0 1 3.424 1.644 6.766 6.766 0 0 1 1.3 4.331 5.877 5.877 0 0 1-1.354 4.097z" class="prefix__cls-1" data-name="Path 4" transform="translate(-74.214 -119.894)"/>
    <path id="prefix__Path_5" d="M141.465 135.678a12.678 12.678 0 0 0-10.029-4.358 11.367 11.367 0 0 0-3.41.494 10.078 10.078 0 0 0-2.479 1.087 10.935 10.935 0 0 0-2.579 2.471c-.042.067-.074.124-.109.183v-.168c-.514-2.382-1.061-3.109-3.072-3.3a34.686 34.686 0 0 0-5.165.093 2.6 2.6 0 0 0-2.536 2.458 10.512 10.512 0 0 0-.187 1.795v1.428c0 .032-.008.06-.008.094V168.389a5.167 5.167 0 0 0 .295 1.646c.709 2.166 2.682 3.72 5.664 3.72s5.048-1.525 5.812-3.66a5.533 5.533 0 0 0 .3-1.7l.008-.766c.011-1.747-.02-5.569-.02-7.543 0-.179.115-.268.213-.122a4.279 4.279 0 0 0 .71.73 9.783 9.783 0 0 0 1.289.921 7.517 7.517 0 0 0 2.02.779 11.28 11.28 0 0 0 2.794.326 13.431 13.431 0 0 0 10.259-4.324q4.04-4.324 4.04-11.36.001-7-3.81-11.358zm-9.518 15.453a4.3 4.3 0 0 1-3.31 1.5 4.134 4.134 0 0 1-3.539-1.644 7.49 7.49 0 0 1 .144-8.4 4.3 4.3 0 0 1 3.339-1.529A4.159 4.159 0 0 1 132 142.7a6.766 6.766 0 0 1 1.3 4.331 5.877 5.877 0 0 1-1.353 4.099z" class="prefix__cls-1" data-name="Path 5" transform="translate(-39.877 -119.894)"/>
    <g id="prefix__Group_3" data-name="Group 3" transform="translate(0 1.033)">
        <path id="prefix__Path_6" d="M26.274 116.328H15.206c-3.179 0-7.193 1.629-7.193 6.807v28.881c0 3.815 3.005 5.812 6.269 5.812s5.909-1.953 5.909-5.812v-7.173h6.152c8.4 0 15.353-5.681 15.353-14.207.004-7.836-5.642-14.308-15.422-14.308zm.617 18.01a3.526 3.526 0 0 1-2.968 1.259h-2.69a.64.64 0 0 1-.652-.64v-7.719a.492.492 0 0 1 .546-.551h3.016a3.314 3.314 0 0 1 2.8 1.2 5.062 5.062 0 0 1 .925 3.168 5.187 5.187 0 0 1-.977 3.283z" class="prefix__cls-1" data-name="Path 6" transform="translate(-8.013 -116.328)"/>
        <g id="prefix__Group_2" data-name="Group 2" transform="translate(0 28.492)" style="opacity:.3">
            <path id="prefix__Path_7" d="M14.505 157.427a6.512 6.512 0 0 0-6.492 6.515v.681c0 3.815 3.005 5.812 6.269 5.812s5.909-1.953 5.909-5.812v-7.2z" class="prefix__cls-1" data-name="Path 7" transform="translate(-8.013 -157.427)"/>
            <g id="prefix__Group_1" data-name="Group 1">
                <path id="prefix__Rectangle_3" d="M0 0H16.5V16.5H0z" data-name="Rectangle 3" transform="rotate(6.6 27.884 -15.722)" style="mix-blend-mode:multiply;isolation:isolate;fill:#fcae00"/>
            </g>
        </g>
    </g>
</svg>
